<?xml version="1.0" encoding="UTF-8"?>
<svg xmlns="http://www.w3.org/2000/svg" width="1040" height="520" viewBox="0 0 1040 520" role="img">
  <defs>
    <style>
      .bg { fill: #07111f; }
      .panel { fill: #0a1628; stroke: #223957; stroke-width: 1.4; }
      .panel2 { fill: #0f2138; stroke: #315273; stroke-width: 1.4; }
      .panel3 { fill: #102b35; stroke: #2c6d73; stroke-width: 1.4; }
      .chip { fill: #0f2138; stroke: #315273; stroke-width: 1.2; }
      .labelBg { fill: #07111f; stroke: #5eead4; stroke-width: 1.1; }
      .title { fill: #f7fbff; font: 700 25px Arial, sans-serif; }
      .subtitle { fill: #b8cbe0; font: 500 14px Arial, sans-serif; }
      .label { fill: #e7f0fa; font: 700 13px Arial, sans-serif; }
      .small { fill: #b8cbe0; font: 500 12px Arial, sans-serif; }
      .tiny { fill: #93acc8; font: 500 10.5px Arial, sans-serif; }
      .mono { fill: #e9f3ff; font: 700 13px Consolas, Menlo, monospace; }
      .cyan { fill: #5eead4; }
      .blue { fill: #60a5fa; }
      .green { fill: #86efac; }
      .pink { fill: #fb7185; }
      .amber { fill: #fbbf24; }
      .gridline { stroke: #203650; stroke-width: 1; }
      .axis { stroke: #6f8cab; stroke-width: 1.5; }
      .arrow { stroke: #b8cbe0; stroke-width: 2.2; fill: none; marker-end: url(#arrow); stroke-linecap: round; stroke-linejoin: round; }
      .arrowCyan { stroke: #5eead4; stroke-width: 2.6; fill: none; marker-end: url(#arrowCyan); stroke-linecap: round; stroke-linejoin: round; }
      .wire { stroke: #6f8cab; stroke-width: 2.0; fill: none; marker-end: url(#arrow); stroke-linecap: round; stroke-linejoin: round; }
      .lineCyan { stroke: #5eead4; stroke-width: 3.4; fill: none; stroke-linecap: round; stroke-linejoin: round; }
      .lineBlue { stroke: #60a5fa; stroke-width: 3.4; fill: none; stroke-linecap: round; stroke-linejoin: round; }
    </style>
    <marker id="arrow" markerWidth="11" markerHeight="11" refX="9.5" refY="3.5" orient="auto" markerUnits="strokeWidth">
      <path d="M0,0 L10,3.5 L0,7 Z" fill="#b8cbe0" />
    </marker>
    <marker id="arrowCyan" markerWidth="11" markerHeight="11" refX="9.5" refY="3.5" orient="auto" markerUnits="strokeWidth">
      <path d="M0,0 L10,3.5 L0,7 Z" fill="#5eead4" />
    </marker>
  </defs>
  <rect class="bg" width="100%" height="100%" rx="18"/>
<text x="520.0" y="42.0" class="title" text-anchor="middle">Motor Control Gains and Actuator Roles</text>
<text x="520.0" y="66.0" class="subtitle" text-anchor="middle">Independent loops tuned for five motors with different mechanical loads</text>
<rect x="45" y="112" width="108" height="44" class="panel2"/>
<text x="57.0" y="140.0" class="label" text-anchor="start">Motor</text>
<rect x="153" y="112" width="215" height="44" class="panel2"/>
<text x="165.0" y="140.0" class="label" text-anchor="start">Actuator</text>
<rect x="368" y="112" width="88" height="44" class="panel2"/>
<text x="380.0" y="140.0" class="label" text-anchor="start">Loop</text>
<rect x="456" y="112" width="72" height="44" class="panel2"/>
<text x="468.0" y="140.0" class="label" text-anchor="start">Kp</text>
<rect x="528" y="112" width="72" height="44" class="panel2"/>
<text x="540.0" y="140.0" class="label" text-anchor="start">Ki</text>
<rect x="600" y="112" width="72" height="44" class="panel2"/>
<text x="612.0" y="140.0" class="label" text-anchor="start">Kd</text>
<rect x="672" y="112" width="270" height="44" class="panel2"/>
<text x="684.0" y="140.0" class="label" text-anchor="start">Role</text>
<rect x="45" y="156" width="108" height="50" fill="#0a1628" stroke="#2c4564" stroke-width="1"/>
<text x="57.0" y="187.0" class="small" text-anchor="start">Motor 1</text>
<rect x="153" y="156" width="215" height="50" fill="#0a1628" stroke="#2c4564" stroke-width="1"/>
<text x="165.0" y="187.0" class="small" text-anchor="start">Horizontal prismatic</text>
<rect x="368" y="156" width="88" height="50" fill="#0a1628" stroke="#2c4564" stroke-width="1"/>
<text x="380.0" y="187.0" class="cyan" text-anchor="start">PI</text>
<rect x="456" y="156" width="72" height="50" fill="#0a1628" stroke="#2c4564" stroke-width="1"/>
<text x="468.0" y="187.0" class="small" text-anchor="start">500</text>
<rect x="528" y="156" width="72" height="50" fill="#0a1628" stroke="#2c4564" stroke-width="1"/>
<text x="540.0" y="187.0" class="small" text-anchor="start">10</text>
<rect x="600" y="156" width="72" height="50" fill="#0a1628" stroke="#2c4564" stroke-width="1"/>
<text x="612.0" y="187.0" class="small" text-anchor="start">-</text>
<rect x="672" y="156" width="270" height="50" fill="#0a1628" stroke="#2c4564" stroke-width="1"/>
<text x="684.0" y="187.0" class="small" text-anchor="start">Lead screw axis</text>
<rect x="45" y="206" width="108" height="50" fill="#0a1628" stroke="#2c4564" stroke-width="1"/>
<text x="57.0" y="237.0" class="small" text-anchor="start">Motor 2</text>
<rect x="153" y="206" width="215" height="50" fill="#0a1628" stroke="#2c4564" stroke-width="1"/>
<text x="165.0" y="237.0" class="small" text-anchor="start">Vertical prismatic L</text>
<rect x="368" y="206" width="88" height="50" fill="#0a1628" stroke="#2c4564" stroke-width="1"/>
<text x="380.0" y="237.0" class="cyan" text-anchor="start">PI</text>
<rect x="456" y="206" width="72" height="50" fill="#0a1628" stroke="#2c4564" stroke-width="1"/>
<text x="468.0" y="237.0" class="small" text-anchor="start">500</text>
<rect x="528" y="206" width="72" height="50" fill="#0a1628" stroke="#2c4564" stroke-width="1"/>
<text x="540.0" y="237.0" class="small" text-anchor="start">10</text>
<rect x="600" y="206" width="72" height="50" fill="#0a1628" stroke="#2c4564" stroke-width="1"/>
<text x="612.0" y="237.0" class="small" text-anchor="start">-</text>
<rect x="672" y="206" width="270" height="50" fill="#0a1628" stroke="#2c4564" stroke-width="1"/>
<text x="684.0" y="237.0" class="small" text-anchor="start">Left lift screw</text>
<rect x="45" y="256" width="108" height="50" fill="#0a1628" stroke="#2c4564" stroke-width="1"/>
<text x="57.0" y="287.0" class="small" text-anchor="start">Motor 3</text>
<rect x="153" y="256" width="215" height="50" fill="#0a1628" stroke="#2c4564" stroke-width="1"/>
<text x="165.0" y="287.0" class="small" text-anchor="start">Vertical prismatic R</text>
<rect x="368" y="256" width="88" height="50" fill="#0a1628" stroke="#2c4564" stroke-width="1"/>
<text x="380.0" y="287.0" class="cyan" text-anchor="start">PI</text>
<rect x="456" y="256" width="72" height="50" fill="#0a1628" stroke="#2c4564" stroke-width="1"/>
<text x="468.0" y="287.0" class="small" text-anchor="start">500</text>
<rect x="528" y="256" width="72" height="50" fill="#0a1628" stroke="#2c4564" stroke-width="1"/>
<text x="540.0" y="287.0" class="small" text-anchor="start">10</text>
<rect x="600" y="256" width="72" height="50" fill="#0a1628" stroke="#2c4564" stroke-width="1"/>
<text x="612.0" y="287.0" class="small" text-anchor="start">-</text>
<rect x="672" y="256" width="270" height="50" fill="#0a1628" stroke="#2c4564" stroke-width="1"/>
<text x="684.0" y="287.0" class="small" text-anchor="start">Right lift screw</text>
<rect x="45" y="306" width="108" height="50" fill="#0a1628" stroke="#2c4564" stroke-width="1"/>
<text x="57.0" y="337.0" class="small" text-anchor="start">Motor 4</text>
<rect x="153" y="306" width="215" height="50" fill="#0a1628" stroke="#2c4564" stroke-width="1"/>
<text x="165.0" y="337.0" class="small" text-anchor="start">Wrist rotation</text>
<rect x="368" y="306" width="88" height="50" fill="#0a1628" stroke="#2c4564" stroke-width="1"/>
<text x="380.0" y="337.0" class="cyan" text-anchor="start">PID</text>
<rect x="456" y="306" width="72" height="50" fill="#0a1628" stroke="#2c4564" stroke-width="1"/>
<text x="468.0" y="337.0" class="small" text-anchor="start">0.1</text>
<rect x="528" y="306" width="72" height="50" fill="#0a1628" stroke="#2c4564" stroke-width="1"/>
<text x="540.0" y="337.0" class="small" text-anchor="start">2</text>
<rect x="600" y="306" width="72" height="50" fill="#0a1628" stroke="#2c4564" stroke-width="1"/>
<text x="612.0" y="337.0" class="small" text-anchor="start">0.01</text>
<rect x="672" y="306" width="270" height="50" fill="#0a1628" stroke="#2c4564" stroke-width="1"/>
<text x="684.0" y="337.0" class="small" text-anchor="start">Load-sensitive joint</text>
<rect x="45" y="356" width="108" height="50" fill="#0a1628" stroke="#2c4564" stroke-width="1"/>
<text x="57.0" y="387.0" class="small" text-anchor="start">Motor 5</text>
<rect x="153" y="356" width="215" height="50" fill="#0a1628" stroke="#2c4564" stroke-width="1"/>
<text x="165.0" y="387.0" class="small" text-anchor="start">End-effector gripper</text>
<rect x="368" y="356" width="88" height="50" fill="#0a1628" stroke="#2c4564" stroke-width="1"/>
<text x="380.0" y="387.0" class="cyan" text-anchor="start">PI</text>
<rect x="456" y="356" width="72" height="50" fill="#0a1628" stroke="#2c4564" stroke-width="1"/>
<text x="468.0" y="387.0" class="small" text-anchor="start">10</text>
<rect x="528" y="356" width="72" height="50" fill="#0a1628" stroke="#2c4564" stroke-width="1"/>
<text x="540.0" y="387.0" class="small" text-anchor="start">0.25</text>
<rect x="600" y="356" width="72" height="50" fill="#0a1628" stroke="#2c4564" stroke-width="1"/>
<text x="612.0" y="387.0" class="small" text-anchor="start">0</text>
<rect x="672" y="356" width="270" height="50" fill="#0a1628" stroke="#2c4564" stroke-width="1"/>
<text x="684.0" y="387.0" class="small" text-anchor="start">Clamp actuation</text>
<rect x="165.0" y="432.0" width="710.0" height="48.0" rx="15.0" class="panel"/>
<text x="520.0" y="462.0" class="small" text-anchor="middle">PI control was sufficient for the linear axes; the wrist used derivative action for added damping.</text>
</svg>
