<?xml version="1.0" encoding="UTF-8"?>
<svg xmlns="http://www.w3.org/2000/svg" width="900" height="545" viewBox="0 0 900 545" role="img">
  <defs>
    <style>
      .bg { fill: #07111f; }
      .panel { fill: #0a1628; stroke: #223957; stroke-width: 1.4; }
      .panel2 { fill: #0f2138; stroke: #315273; stroke-width: 1.4; }
      .panel3 { fill: #102b35; stroke: #2c6d73; stroke-width: 1.4; }
      .chip { fill: #0f2138; stroke: #315273; stroke-width: 1.2; }
      .labelBg { fill: #07111f; stroke: #5eead4; stroke-width: 1.1; }
      .title { fill: #f7fbff; font: 700 25px Arial, sans-serif; }
      .subtitle { fill: #b8cbe0; font: 500 14px Arial, sans-serif; }
      .label { fill: #e7f0fa; font: 700 13px Arial, sans-serif; }
      .small { fill: #b8cbe0; font: 500 12px Arial, sans-serif; }
      .tiny { fill: #93acc8; font: 500 10.5px Arial, sans-serif; }
      .mono { fill: #e9f3ff; font: 700 13px Consolas, Menlo, monospace; }
      .cyan { fill: #5eead4; }
      .blue { fill: #60a5fa; }
      .green { fill: #86efac; }
      .pink { fill: #fb7185; }
      .amber { fill: #fbbf24; }
      .gridline { stroke: #203650; stroke-width: 1; }
      .axis { stroke: #6f8cab; stroke-width: 1.5; }
      .arrow { stroke: #b8cbe0; stroke-width: 2.2; fill: none; marker-end: url(#arrow); stroke-linecap: round; stroke-linejoin: round; }
      .arrowCyan { stroke: #5eead4; stroke-width: 2.6; fill: none; marker-end: url(#arrowCyan); stroke-linecap: round; stroke-linejoin: round; }
      .wire { stroke: #6f8cab; stroke-width: 2.0; fill: none; marker-end: url(#arrow); stroke-linecap: round; stroke-linejoin: round; }
      .lineCyan { stroke: #5eead4; stroke-width: 3.4; fill: none; stroke-linecap: round; stroke-linejoin: round; }
      .lineBlue { stroke: #60a5fa; stroke-width: 3.4; fill: none; stroke-linecap: round; stroke-linejoin: round; }
    </style>
    <marker id="arrow" markerWidth="11" markerHeight="11" refX="9.5" refY="3.5" orient="auto" markerUnits="strokeWidth">
      <path d="M0,0 L10,3.5 L0,7 Z" fill="#b8cbe0" />
    </marker>
    <marker id="arrowCyan" markerWidth="11" markerHeight="11" refX="9.5" refY="3.5" orient="auto" markerUnits="strokeWidth">
      <path d="M0,0 L10,3.5 L0,7 Z" fill="#5eead4" />
    </marker>
  </defs>
  <rect class="bg" width="100%" height="100%" rx="18"/>
<text x="450.0" y="42.0" class="title" text-anchor="middle">PWM Timing Problem and Fix</text>
<text x="450.0" y="66.0" class="subtitle" text-anchor="middle">Hardware-timed PWM made the closed-loop response repeatable</text>
<rect x="50.0" y="112.0" width="350.0" height="270.0" rx="15.0" class="panel"/>
<text x="225.0" y="145.0" class="label" text-anchor="middle">Software-timed PWM</text>
<text x="225.0" y="168.0" class="tiny" text-anchor="middle">Pulse edges vary with OS scheduling</text>
<path d="M78,302 L78,302 L78,222 L109,222 L109,302 L127,302 L127,222 L170,222 L170,302 L183,302 L183,222 L210,222 L210,302 L232,302 L232,222 L271,222 L271,302 L282,302 L282,222 L314,222 L314,302 L332,302 L332,222 L377,222 L377,302 L391,302 L391,222 L419,222 L419,302 " fill="none" stroke="#fb7185" stroke-width="4" stroke-linejoin="round" stroke-linecap="round"/>
<text x="225.0" y="348.0" class="tiny" text-anchor="middle">Variable edge timing destabilizes the control loop</text>
<rect x="500.0" y="112.0" width="350.0" height="270.0" rx="15.0" class="panel2"/>
<text x="675.0" y="145.0" class="label" text-anchor="middle">Hardware-timed PWM</text>
<text x="675.0" y="168.0" class="tiny" text-anchor="middle">DMA/timer pulses independent of CPU load</text>
<path d="M533,302 L533,302 L533,222 L567,222 L567,302 L589,302 L589,222 L623,222 L623,302 L645,302 L645,222 L679,222 L679,302 L701,302 L701,222 L735,222 L735,302 L757,302 L757,222 L791,222 L791,302 L813,302 L813,222 L847,222 L847,302 " fill="none" stroke="#86efac" stroke-width="4" stroke-linejoin="round" stroke-linecap="round"/>
<text x="675.0" y="348.0" class="tiny" text-anchor="middle">Consistent pulse timing produces repeatable motion</text>
<path class="arrowCyan" d="M414,247 C440,220 462,220 488,247"/>
<text x="451.0" y="213.0" class="cyan" text-anchor="middle">hardware-timed output</text>
<rect x="110.0" y="425.0" width="680.0" height="82.0" rx="15.0" class="panel"/>
<text x="450.0" y="454.0" class="label" text-anchor="middle">Debugging path</text>
<rect x="109" y="468" width="130" height="25" rx="12" class="chip"/>
<text x="174.0" y="486.0" class="tiny" text-anchor="middle">Measure jitter</text>
<rect x="273" y="468" width="130" height="25" rx="12" class="chip"/>
<text x="338.0" y="486.0" class="tiny" text-anchor="middle">Find timing issue</text>
<rect x="455" y="468" width="130" height="25" rx="12" class="chip"/>
<text x="520.0" y="486.0" class="tiny" text-anchor="middle">Use pigpio hardware timing</text>
<rect x="638" y="468" width="130" height="25" rx="12" class="chip"/>
<text x="703.0" y="486.0" class="tiny" text-anchor="middle">Stabilize motion</text>
<path class="arrow" d="M240,480 L270,480"/>
<path class="arrow" d="M405,480 L445,480"/>
<path class="arrow" d="M586,480 L638,480"/>
</svg>
