<?xml version="1.0" encoding="UTF-8"?>
<svg xmlns="http://www.w3.org/2000/svg" width="900" height="545" viewBox="0 0 900 545" role="img">
  <defs>
    <style>
      .bg { fill: #07111f; }
      .panel { fill: #0a1628; stroke: #223957; stroke-width: 1.4; }
      .panel2 { fill: #0f2138; stroke: #315273; stroke-width: 1.4; }
      .panel3 { fill: #102b35; stroke: #2c6d73; stroke-width: 1.4; }
      .chip { fill: #0f2138; stroke: #315273; stroke-width: 1.2; }
      .labelBg { fill: #07111f; stroke: #5eead4; stroke-width: 1.1; }
      .title { fill: #f7fbff; font: 700 25px Arial, sans-serif; }
      .subtitle { fill: #b8cbe0; font: 500 14px Arial, sans-serif; }
      .label { fill: #e7f0fa; font: 700 13px Arial, sans-serif; }
      .small { fill: #b8cbe0; font: 500 12px Arial, sans-serif; }
      .tiny { fill: #93acc8; font: 500 10.5px Arial, sans-serif; }
      .mono { fill: #e9f3ff; font: 700 13px Consolas, Menlo, monospace; }
      .cyan { fill: #5eead4; }
      .blue { fill: #60a5fa; }
      .green { fill: #86efac; }
      .pink { fill: #fb7185; }
      .amber { fill: #fbbf24; }
      .gridline { stroke: #203650; stroke-width: 1; }
      .axis { stroke: #6f8cab; stroke-width: 1.5; }
      .arrow { stroke: #b8cbe0; stroke-width: 2.2; fill: none; marker-end: url(#arrow); stroke-linecap: round; stroke-linejoin: round; }
      .arrowCyan { stroke: #5eead4; stroke-width: 2.6; fill: none; marker-end: url(#arrowCyan); stroke-linecap: round; stroke-linejoin: round; }
      .wire { stroke: #6f8cab; stroke-width: 2.0; fill: none; marker-end: url(#arrow); stroke-linecap: round; stroke-linejoin: round; }
      .lineCyan { stroke: #5eead4; stroke-width: 3.4; fill: none; stroke-linecap: round; stroke-linejoin: round; }
      .lineBlue { stroke: #60a5fa; stroke-width: 3.4; fill: none; stroke-linecap: round; stroke-linejoin: round; }
    </style>
    <marker id="arrow" markerWidth="11" markerHeight="11" refX="9.5" refY="3.5" orient="auto" markerUnits="strokeWidth">
      <path d="M0,0 L10,3.5 L0,7 Z" fill="#b8cbe0" />
    </marker>
    <marker id="arrowCyan" markerWidth="11" markerHeight="11" refX="9.5" refY="3.5" orient="auto" markerUnits="strokeWidth">
      <path d="M0,0 L10,3.5 L0,7 Z" fill="#5eead4" />
    </marker>
  </defs>
  <rect class="bg" width="100%" height="100%" rx="18"/>
<text x="450.0" y="42.0" class="title" text-anchor="middle">PWM Duty-Cycle Debugging</text>
<text x="450.0" y="66.0" class="subtitle" text-anchor="middle">Oscilloscope testing showed the software PWM output did not match the commanded duty cycle</text>
<rect x="50.0" y="112.0" width="350.0" height="276.0" rx="15.0" class="panel"/>
<text x="225.0" y="145.0" class="label" text-anchor="middle">Original software PWM library</text>
<text x="225.0" y="168.0" class="tiny" text-anchor="middle">Controller tuning could not produce reliable motor behavior</text>
<rect x="128" y="184" width="194" height="42" rx="14" fill="#111d2f" stroke="#334b6a" stroke-width="1.1"/>
<text x="225.0" y="202.0" class="small" text-anchor="middle">Measured with oscilloscope</text>
<text x="225.0" y="219.0" class="tiny" text-anchor="middle">actual duty differed from command</text>
<path d="M92,318 L92,250 L126,250 L126,318 L143,318 L143,250 L165,250 L165,318 L194,318 L194,250 L237,250 L237,318 L250,318 L250,250 L277,250 L277,318 L304,318 L304,250 L342,250 L342,318 L358,318" fill="none" stroke="#fb7185" stroke-width="4" stroke-linejoin="round" stroke-linecap="round"/>
<text x="225.0" y="355.0" class="tiny" text-anchor="middle">Mismatch explained the failed tuning response</text>
<rect x="500.0" y="112.0" width="350.0" height="276.0" rx="15.0" class="panel2"/>
<text x="675.0" y="145.0" class="label" text-anchor="middle">pigpio hardware-timed PWM</text>
<text x="675.0" y="168.0" class="tiny" text-anchor="middle">Library change produced the requested duty cycle</text>
<rect x="578" y="184" width="194" height="42" rx="14" fill="#112632" stroke="#2c6d73" stroke-width="1.1"/>
<text x="675.0" y="202.0" class="small" text-anchor="middle">Verified on oscilloscope</text>
<text x="675.0" y="219.0" class="tiny" text-anchor="middle">actual duty matched command</text>
<path d="M544,318 L544,318 L544,250 L571,250 L571,318 L587,318 L587,250 L614,250 L614,318 L630,318 L630,250 L657,250 L657,318 L673,318 L673,250 L700,250 L700,318 L716,318 L716,250 L743,250 L743,318 L759,318 L759,250 L786,250 L786,318 L806,318" fill="none" stroke="#86efac" stroke-width="4" stroke-linejoin="round" stroke-linecap="round"/>
<text x="675.0" y="355.0" class="tiny" text-anchor="middle">Verified PWM made tuning repeatable</text>
<g aria-label="library change"><path d="M418 245 H466 V226 L492 256 L466 286 V267 H418 Z" fill="#123c45" stroke="#5eead4" stroke-width="1.8" stroke-linejoin="round"/></g>
<text x="455.0" y="328.0" class="tiny" text-anchor="middle">library change</text>
<rect x="48.0" y="420.0" width="804.0" height="108.0" rx="15.0" class="panel"/>
<text x="450.0" y="449.0" class="label" text-anchor="middle">Debugging sequence</text>
<path d="M188 481 H211 L223 491 L211 501 H188 L198 491 Z" fill="#5eead4" opacity="0.9"/>
<path d="M351 481 H374 L386 491 L374 501 H351 L361 491 Z" fill="#5eead4" opacity="0.9"/>
<path d="M514 481 H537 L549 491 L537 501 H514 L524 491 Z" fill="#5eead4" opacity="0.9"/>
<path d="M677 481 H700 L712 491 L700 501 H677 L687 491 Z" fill="#5eead4" opacity="0.9"/>
<rect x="46" y="466" width="140" height="50" rx="16" class="chip"/>
<circle cx="69" cy="491" r="13" fill="#5eead4"/>
<text x="69.0" y="496.0" class="label" text-anchor="middle">1</text>
<text x="130.0" y="486.0" class="tiny" text-anchor="middle">Tune controllers</text>
<text x="130.0" y="502.0" class="tiny" text-anchor="middle">behavior still wrong</text>
<rect x="209" y="466" width="140" height="50" rx="16" class="chip"/>
<circle cx="232" cy="491" r="13" fill="#5eead4"/>
<text x="232.0" y="496.0" class="label" text-anchor="middle">2</text>
<text x="293.0" y="486.0" class="tiny" text-anchor="middle">Probe PWM with</text>
<text x="293.0" y="502.0" class="tiny" text-anchor="middle">oscilloscope</text>
<rect x="372" y="466" width="140" height="50" rx="16" class="chip"/>
<circle cx="395" cy="491" r="13" fill="#5eead4"/>
<text x="395.0" y="496.0" class="label" text-anchor="middle">3</text>
<text x="456.0" y="486.0" class="tiny" text-anchor="middle">Identify duty-cycle</text>
<text x="456.0" y="502.0" class="tiny" text-anchor="middle">mismatch</text>
<rect x="535" y="466" width="140" height="50" rx="16" class="chip"/>
<circle cx="558" cy="491" r="13" fill="#5eead4"/>
<text x="558.0" y="496.0" class="label" text-anchor="middle">4</text>
<text x="619.0" y="486.0" class="tiny" text-anchor="middle">Switch PWM</text>
<text x="619.0" y="502.0" class="tiny" text-anchor="middle">library</text>
<rect x="698" y="466" width="140" height="50" rx="16" class="chip"/>
<circle cx="721" cy="491" r="13" fill="#5eead4"/>
<text x="721.0" y="496.0" class="label" text-anchor="middle">5</text>
<text x="782.0" y="486.0" class="tiny" text-anchor="middle">Verify waveform</text>
<text x="782.0" y="502.0" class="tiny" text-anchor="middle">then deploy</text>
</svg>
